<svg xmlns="http://www.w3.org/2000/svg" xmlns:xlink="http://www.w3.org/1999/xlink" xml:space="preserve" version="1.1" style="shape-rendering:geometricPrecision;text-rendering:geometricPrecision;image-rendering:optimizeQuality;" viewBox="0 0 636 986.25" x="0px" y="0px" fill-rule="evenodd" clip-rule="evenodd"><defs><style type="text/css">

    .fil0 {fill:black}

  </style></defs><g><path class="fil0" d="M634 686l2 -367c-11,-77 -23,-153 -34,-230 -180,-119 -388,-119 -568,0 -11,77 -23,153 -34,230l2 367 39 0 0 59c0,25 20,44 44,44 24,0 44,-19 44,-44l0 -58 378 0 0 58c0,25 20,44 44,44 24,0 44,-19 44,-44l0 -59 39 0zm-186 -632c11,0 20,8 20,19 0,11 -9,20 -20,20l-260 0c-11,0 -20,-9 -20,-20 0,-11 9,-19 20,-19l260 0zm84 79c10,2 18,8 22,19 10,68 21,136 31,205 -1,11 -8,17 -19,22l-496 0c-11,-5 -18,-11 -19,-22 10,-69 21,-137 31,-205 4,-11 12,-17 22,-19l428 0zm-438 359c-25,0 -45,20 -45,45 0,25 20,45 45,45 25,0 45,-20 45,-45 0,-25 -20,-45 -45,-45zm448 0c25,0 45,20 45,45 0,25 -20,45 -45,45 -25,0 -45,-20 -45,-45 0,-25 20,-45 45,-45z"/></g></svg>
